<svg width="116" height="116" viewBox="0 0 116 116" fill="none" xmlns="http://www.w3.org/2000/svg">
  <g clip-path="url(#clip0_25_4)">
    <mask id="mask0_25_4" style="mask-type:luminance" maskUnits="userSpaceOnUse" x="0" y="0"
      width="116" height="116">
      <path d="M116 116V0L0 0V116H116Z" fill="white" />
    </mask>
    <g mask="url(#mask0_25_4)">
      <path fill-rule="evenodd" clip-rule="evenodd"
        d="M58 58V0L116 0C116 32.0325 90.0325 58 58 58ZM58 116H116C116 83.9678 90.0325 58 58 58L58 116ZM0 58V0L58 0C58 32.0325 32.0322 58 0 58ZM0 58V116H58C58 83.9678 32.0322 58 0 58Z"
        fill="black" />
    </g>
  </g>
  <defs>
    <clipPath id="clip0_25_4">
      <rect width="116" height="116" fill="white" transform="matrix(0 1 -1 0 116 0)" />
    </clipPath>
  </defs>
</svg>
