<svg width="911" height="289" viewBox="0 0 911 289" fill="none" xmlns="http://www.w3.org/2000/svg">
  <path
    d="M190.4 220.6H219.6C220 224.333 221.067 227.467 222.8 230C224.667 232.533 227.133 234.4 230.2 235.6C233.267 236.933 236.733 237.6 240.6 237.6C244.867 237.6 248.733 236.6 252.2 234.6C255.667 232.733 258.4 229.867 260.4 226C262.533 222.267 263.6 217.6 263.6 212V122H292.6V212C292.6 223.733 290.267 233.267 285.6 240.6C281.067 247.933 275 253.267 267.4 256.6C259.8 260.067 251.267 261.8 241.8 261.8C230.467 261.8 221.067 260.067 213.6 256.6C206.267 253.133 200.733 248.267 197 242C193.267 235.867 191.067 228.733 190.4 220.6ZM188.4 166.8C188.4 156.4 190.467 147.733 194.6 140.8C198.867 133.867 204.333 128.667 211 125.2C217.667 121.733 224.733 120 232.2 120C239.933 120 246.733 121.867 252.6 125.6C258.6 129.2 263.333 134.467 266.8 141.4C270.267 148.333 272 156.8 272 166.8C272 176.667 270.267 185.133 266.8 192.2C263.333 199.133 258.6 204.467 252.6 208.2C246.733 211.8 239.933 213.6 232.2 213.6C224.733 213.6 217.667 211.867 211 208.4C204.333 204.8 198.867 199.533 194.6 192.6C190.467 185.667 188.4 177.067 188.4 166.8ZM220.2 166.8C220.2 171.467 221.2 175.533 223.2 179C225.2 182.333 227.867 184.867 231.2 186.6C234.533 188.333 238.2 189.2 242.2 189.2C245.667 189.2 249 188.4 252.2 186.8C255.533 185.067 258.267 182.533 260.4 179.2C262.533 175.867 263.6 171.733 263.6 166.8C263.6 163.067 262.933 159.8 261.6 157C260.4 154.2 258.733 151.867 256.6 150C254.6 148.133 252.333 146.733 249.8 145.8C247.267 144.867 244.733 144.4 242.2 144.4C238.2 144.4 234.533 145.267 231.2 147C227.867 148.733 225.2 151.267 223.2 154.6C221.2 157.933 220.2 162 220.2 166.8ZM337.67 122V214H307.87V122H337.67ZM364.27 153.2C362.67 151.6 360.937 150.333 359.07 149.4C357.337 148.467 355.137 148 352.47 148C349.537 148 346.937 148.8 344.67 150.4C342.404 152 340.67 154.333 339.47 157.4C338.27 160.467 337.67 164.2 337.67 168.6L330.47 158C330.47 150.667 331.87 144.133 334.67 138.4C337.604 132.667 341.404 128.133 346.07 124.8C350.737 121.467 355.604 119.8 360.67 119.8C364.004 119.8 367.204 120.467 370.27 121.8C373.337 123.133 375.67 125 377.27 127.4L364.27 153.2ZM405.497 185.2C405.497 187.6 406.097 189.667 407.297 191.4C408.497 193 410.097 194.267 412.097 195.2C414.097 196 416.297 196.4 418.697 196.4C422.164 196.4 425.364 195.667 428.297 194.2C431.23 192.733 433.63 190.533 435.497 187.6C437.364 184.667 438.297 181.067 438.297 176.8L441.497 188.8C441.497 194.667 439.897 199.667 436.697 203.8C433.497 207.8 429.364 210.867 424.297 213C419.23 215 413.764 216 407.897 216C402.03 216 396.564 214.933 391.497 212.8C386.564 210.533 382.564 207.2 379.497 202.8C376.564 198.4 375.097 193.067 375.097 186.8C375.097 178 378.23 171.067 384.497 166C390.764 160.8 399.63 158.2 411.097 158.2C416.697 158.2 421.697 158.733 426.097 159.8C430.63 160.867 434.497 162.2 437.697 163.8C440.897 165.4 443.297 167.067 444.897 168.8V182.2C441.697 179.8 437.964 178 433.697 176.8C429.564 175.467 425.164 174.8 420.497 174.8C416.897 174.8 414.03 175.2 411.897 176C409.764 176.8 408.164 178 407.097 179.6C406.03 181.067 405.497 182.933 405.497 185.2ZM392.097 150.2L381.897 130C387.097 127.467 393.364 125.067 400.697 122.8C408.03 120.533 416.03 119.4 424.697 119.4C432.83 119.4 440.097 120.6 446.497 123C452.897 125.267 457.964 128.6 461.697 133C465.43 137.4 467.297 142.8 467.297 149.2V214H438.297V156C438.297 153.733 437.897 151.8 437.097 150.2C436.43 148.467 435.364 147 433.897 145.8C432.43 144.6 430.564 143.733 428.297 143.2C426.164 142.667 423.697 142.4 420.897 142.4C416.764 142.4 412.697 142.867 408.697 143.8C404.83 144.733 401.43 145.867 398.497 147.2C395.564 148.4 393.43 149.4 392.097 150.2ZM551.709 58H581.909V214H551.709V58ZM476.509 168C476.509 157.6 478.576 148.867 482.709 141.8C486.976 134.733 492.443 129.333 499.109 125.6C505.776 121.867 512.843 120 520.309 120C528.043 120 534.843 121.933 540.709 125.8C546.709 129.667 551.443 135.2 554.909 142.4C558.376 149.467 560.109 158 560.109 168C560.109 177.867 558.376 186.4 554.909 193.6C551.443 200.8 546.709 206.333 540.709 210.2C534.843 214.067 528.043 216 520.309 216C512.843 216 505.776 214.133 499.109 210.4C492.443 206.667 486.976 201.267 482.709 194.2C478.576 187 476.509 178.267 476.509 168ZM508.309 168C508.309 172.8 509.309 177 511.309 180.6C513.309 184.067 515.976 186.8 519.309 188.8C522.643 190.667 526.309 191.6 530.309 191.6C533.776 191.6 537.109 190.667 540.309 188.8C543.643 186.933 546.376 184.267 548.509 180.8C550.643 177.2 551.709 172.933 551.709 168C551.709 163.067 550.643 158.867 548.509 155.4C546.376 151.8 543.643 149.067 540.309 147.2C537.109 145.333 533.776 144.4 530.309 144.4C526.309 144.4 522.643 145.4 519.309 147.4C515.976 149.267 513.309 152 511.309 155.6C509.309 159.067 508.309 163.2 508.309 168ZM595.547 87.4C595.547 82.6 597.28 78.7333 600.747 75.8C604.214 72.7333 608.347 71.2 613.147 71.2C618.08 71.2 622.214 72.7333 625.547 75.8C629.014 78.7333 630.747 82.6 630.747 87.4C630.747 92.2 629.014 96.1333 625.547 99.2C622.214 102.267 618.08 103.8 613.147 103.8C608.347 103.8 604.214 102.267 600.747 99.2C597.28 96.1333 595.547 92.2 595.547 87.4ZM598.547 122H627.747V214H598.547V122ZM691.42 216C680.754 216 671.487 214.067 663.62 210.2C655.887 206.2 649.887 200.6 645.62 193.4C641.354 186.2 639.22 177.733 639.22 168C639.22 158.133 641.287 149.6 645.42 142.4C649.554 135.2 655.487 129.667 663.22 125.8C671.087 121.933 680.354 120 691.02 120C701.687 120 710.687 121.867 718.02 125.6C725.354 129.2 730.954 134.467 734.82 141.4C738.687 148.333 740.62 156.733 740.62 166.6C740.62 168.067 740.62 169.533 740.62 171C740.62 172.333 740.487 173.467 740.22 174.4H656.22V157.6H713.02L705.82 166.8C706.487 165.867 707.02 164.733 707.42 163.4C707.954 161.933 708.22 160.733 708.22 159.8C708.22 155.8 707.487 152.333 706.02 149.4C704.554 146.467 702.487 144.2 699.82 142.6C697.154 141 694.02 140.2 690.42 140.2C685.887 140.2 682.087 141.2 679.02 143.2C675.954 145.2 673.62 148.267 672.02 152.4C670.554 156.4 669.754 161.467 669.62 167.6C669.62 173.2 670.42 178 672.02 182C673.62 186 676.02 189.067 679.22 191.2C682.42 193.2 686.354 194.2 691.02 194.2C696.354 194.2 700.887 193.2 704.62 191.2C708.487 189.2 711.554 186.2 713.82 182.2L740.82 188.8C736.02 197.867 729.487 204.667 721.22 209.2C713.087 213.733 703.154 216 691.42 216ZM811.069 158C811.069 152.533 810.002 148.333 807.869 145.4C805.869 142.467 802.469 141 797.669 141C794.469 141 791.669 141.667 789.269 143C786.869 144.333 785.002 146.267 783.669 148.8C782.335 151.333 781.669 154.4 781.669 158V214H751.269V122H781.669V135.8C784.335 130.733 787.935 126.8 792.469 124C797.135 121.2 802.869 119.8 809.669 119.8C821.135 119.8 829.469 122.867 834.669 129C839.869 135.133 842.469 143.733 842.469 154.8V214H811.069V158ZM847.508 122H909.108V147H847.508V122ZM863.708 90H892.708V214H863.708V90Z"
    fill="#1f0503" />
  <mask id="mask0_49_711" style="mask-type:luminance" maskUnits="userSpaceOnUse" x="0" y="90"
    width="148" height="148">
    <path d="M148 238V90L0 90V238H148Z" fill="white" />
  </mask>
  <g mask="url(#mask0_49_711)">
    <path fill-rule="evenodd" clip-rule="evenodd"
      d="M74 164V90H148C148 130.869 114.869 164 74 164ZM74 238H148C148 197.131 114.869 164 74 164L74 238ZM0 164V90L74 90C74 130.869 40.8687 164 0 164ZM0 164V238H74C74 197.131 40.8687 164 0 164Z"
      fill="#1f0503" />
  </g>
</svg>